<?xml version="1.0" encoding="UTF-8"?>
<svg id="Layer_2" data-name="Layer 2" xmlns="http://www.w3.org/2000/svg" viewBox="0 0 989.11 989.01">
  <defs>
    <style>
      .cls-1 {
        fill: #fff;
      }
    </style>
  </defs>
  <g id="Layer_1-2" data-name="Layer 1">
    <path class="cls-1" d="M980.14,396.17c-8.25-43.35-22.18-84.75-42.22-124.08-28.85-56.63-68.01-105.24-115.09-147.65C739.56,49.44,641.94,8.34,530.11,1.14c-38.65-2.48-77.16-.94-115.5,4.82-42.56,6.4-83.53,18.19-122.78,35.86-60.64,27.3-112.75,66.41-158.29,114.56-41.97,44.37-75.45,94.29-98.49,151C10.71,367.28.03,429.75,0,494.22c-.01,30.99,2.32,59.12,7.31,88.95,9.9,59.24,30.45,114.52,61.83,165.74,26.63,43.48,59.6,81.66,97.4,115.75,33.44,30.14,70.11,55.57,110.5,75.55,66.91,33.09,138.03,48.04,212.36,48.77,32.67.32,65.14-2.21,97.36-7.9,48.41-8.55,94.36-24.17,137.75-47.27,48.38-25.75,90.8-59.28,128.63-98.77,34.36-35.88,63.35-75.6,85.72-120.05,34.07-67.69,49.51-139.75,50.22-215.22.33-34.81-2.42-69.37-8.94-103.6ZM286.46,901.48c-48.16-25.15-90.08-58.42-127.04-98.07-39.25-42.12-70.11-89.57-90.84-143.43-12.57-32.69-20.91-66.43-25.42-101.16-3.5-26.9-4.79-53.91-3.89-81,1.84-55.83,12.58-109.79,34.52-161.34,21.94-51.55,53.23-96.82,92.02-137.06,34.46-35.75,72.97-66.22,116.86-89.68,41.61-22.23,85.73-36.95,132.25-44.71,34.57-5.77,69.36-7.57,104.29-5.93,109.86,5.16,204.79,45.77,285.1,120.77,40.16,37.5,73.71,80.07,98.95,129.04,2.37,4.59,2.11,7.6-.79,11.84-78.06,114.15-155.97,228.42-233.91,342.65-1.08,1.59-1.88,3.43-4.16,5.01-58.45-202.86-116.82-405.43-175.18-608.01-.33.02-.66.03-.99.04-53.39,202.48-106.78,404.96-160.21,607.57-.87-.66-.04.03-.75-.02-.17-.01-.36-.11-.47-.23-.48-.53-.96-1.05-1.38-1.61-82.36-110.91-164.71-221.83-247.07-332.74-.1-.12-.31-.17-1.42-.76,72.11,197.68,143.85,394.34,215.95,591.99-2.79-1.37-4.63-2.22-6.42-3.16ZM667.36,918.39c-14.15,5.82-28.63,10.71-43.35,14.84-32.31,9.07-65.24,14.38-98.75,16.34-26.73,1.57-53.4,1.14-80.01-1.48-44.15-4.34-86.88-14.57-127.84-31.82-.82-.34-1.62-.74-2.46-1.03-1.33-.47-1.44-1.44-1.09-2.56.68-2.2,1.42-4.39,2.14-6.59,30.69-93.36,61.38-186.71,92.06-280.08,28.47-86.6,56.92-173.21,85.39-259.82.43-1.3.97-2.58,1.45-3.87.35-.01.7-.01,1.04-.02,2.97,9.26,5.96,18.51,8.89,27.77,55.09,173.81,110.17,347.62,165.26,521.43.05.17.15.33.19.5,1.38,5.4,2.35,4.23-2.92,6.39ZM950.4,518.86c-4.98,105.76-42.44,198.39-113.22,277.31-39.6,44.14-85.3,80.55-138.09,107.83-2.52,1.3-5.07,2.52-7.6,3.79l-.93-.72c72.72-201.71,145.44-403.41,218.5-606.05,1.02,1.95,1.66,3.05,2.19,4.21,16.92,36.73,28.05,75.17,34.23,115.13,5.05,32.68,6.47,65.54,4.92,98.5Z"/>
  </g>
</svg>